<?xml version="1.0" encoding="utf-8"?>
<!-- Generator: Adobe Illustrator 22.0.1, SVG Export Plug-In . SVG Version: 6.00 Build 0)  -->
<svg version="1.1" id="Слой_1" xmlns="http://www.w3.org/2000/svg" xmlns:xlink="http://www.w3.org/1999/xlink" x="0px" y="0px"
	 viewBox="0 0 49.6 50.7" style="enable-background:new 0 0 49.6 50.7;" xml:space="preserve">
<style type="text/css">
	.st0{fill:#212121;}
</style>
<g>
	<path class="st0" d="M47.2,0H32.4C31,0,30,1.1,30,2.4v1.5c0,1.2,0.9,2.2,2,2.4l1.2,0.2c1.5,0.2,2.4,1.7,1.9,3.2l-9.1,26
		c0,0.1,0,0.1-0.1,0.2l-0.9,3.5h-0.3L24,35.9c0-0.1,0-0.2-0.1-0.3l-9.4-26c-0.5-1.4,0.4-3,1.9-3.2l1.2-0.2c1.2-0.2,2-1.2,2-2.4V2.4
		c0-1.3-1.1-2.4-2.4-2.4H2.4C1.1,0,0,1.1,0,2.4v1.5c0,1.2,0.8,2.2,2,2.4l0.8,0.1c0.8,0.1,1.5,0.7,1.8,1.5l16.1,41.3
		c0.4,0.9,1.2,1.5,2.2,1.5h3.7c1,0,1.9-0.6,2.2-1.5l16-41.7C45.3,6.6,46.2,6,47.2,6c1.3,0,2.4-1.1,2.4-2.4V2.4
		C49.6,1.1,48.5,0,47.2,0z"/>
	<path class="st0" d="M25,15.4c1.7,0,3.2-1.4,3.2-3.2c0-1.7-1.4-3.2-3.2-3.2s-3.2,1.4-3.2,3.2C21.8,14,23.2,15.4,25,15.4z"/>
</g>
</svg>
